<svg width="14" height="14" viewBox="0 0 14 14" fill="none" xmlns="http://www.w3.org/2000/svg">
    <path d="M5.87699 6.41658L3.61657 3.252C3.48046 3.05756 3.46354 2.85592 3.56582 2.64709C3.6681 2.43825 3.84057 2.33364 4.08324 2.33325C4.18046 2.33325 4.27282 2.35522 4.36032 2.39917C4.44782 2.44311 4.51588 2.50378 4.56449 2.58117L7.30615 6.41658L4.56449 10.252C4.51588 10.3298 4.44782 10.3906 4.36032 10.4346C4.27282 10.4785 4.18046 10.5003 4.08324 10.4999C3.8499 10.4999 3.67977 10.3955 3.57282 10.1867C3.46588 9.97783 3.48046 9.776 3.61657 9.58117L5.87699 6.41658ZM9.34782 6.41658L7.0874 3.252C6.95129 3.05756 6.93418 2.85592 7.03607 2.64709C7.13796 2.43825 7.31082 2.33364 7.55465 2.33325C7.65188 2.33325 7.74424 2.35522 7.83174 2.39917C7.91924 2.44311 7.98729 2.50378 8.0359 2.58117L10.777 6.41658L8.03532 10.252C7.98671 10.3298 7.91865 10.3906 7.83115 10.4346C7.74365 10.4785 7.65129 10.5003 7.55407 10.4999C7.32074 10.4999 7.1506 10.3955 7.04365 10.1867C6.93671 9.97783 6.95129 9.776 7.0874 9.58117L9.34782 6.41658Z" fill="#E6C27A"/>
</svg>
